<svg width="203" height="36" viewBox="0 0 204 36" fill="none" xmlns="http://www.w3.org/2000/svg"><g clip-path="url(#clip0)"><path d="M36 17.82C35.88 7.98 27.9 0 18 0h-.18v17.82H36z" fill="#FFCD4E"/><path d="M17.82 0C8.04.12.12 8.04 0 17.82h17.82V0z" fill="#85CA6D"/><path d="M17.82 17.82V36H18c9.96 0 18-8.04 18-18v-.18H17.82z" fill="#448EE5"/><path d="M0 17.82V18c0 9.9 7.98 17.88 17.82 18V17.82H0z" fill="#DF4F4F"/><path d="M60.72 21.06c0 3.48-2.22 5.28-6.72 5.28h-5.1V8.82h10.68v2.46h-7.8v4.68h2.1c4.56-.06 6.84 1.68 6.84 5.1zm-6.9 2.82c1.38 0 2.4-.24 3-.66.66-.48.96-1.2.96-2.16 0-.96-.3-1.68-.96-2.1-.66-.42-1.74-.66-3.36-.66h-1.74v5.58h2.1zm22.56-2.82c0 1.74-.6 3-1.74 3.9-1.14.9-2.82 1.32-4.98 1.32H64.2V8.82h2.88v7.08h2.46c2.22 0 3.9.42 5.1 1.32 1.2.9 1.74 2.16 1.74 3.84zm-6.9 2.82c1.26 0 2.28-.24 2.94-.66.66-.48 1.02-1.2 1.02-2.16 0-.96-.36-1.62-1.02-2.04-.66-.42-1.8-.66-3.3-.66h-2.1v5.52h2.46zm32.58-6.36c0 2.88-.66 5.04-2.04 6.66-1.38 1.56-3.24 2.34-5.76 2.34-2.34 0-4.2-.72-5.58-2.1-1.32-1.44-2.1-3.42-2.22-6h-3.78v7.86H79.8V8.82h2.88v7.14h3.84c.24-2.4 1.02-4.26 2.34-5.52 1.32-1.26 3.12-1.92 5.4-1.92 2.46 0 4.38.78 5.7 2.34 1.44 1.62 2.1 3.84 2.1 6.66zm-12.54 0c0 2.16.42 3.78 1.2 4.92.78 1.08 1.98 1.68 3.6 1.68s2.82-.54 3.6-1.68c.78-1.14 1.2-2.76 1.2-4.92s-.42-3.78-1.2-4.92c-.78-1.14-1.98-1.68-3.54-1.68-1.62 0-2.82.54-3.6 1.68-.84 1.14-1.26 2.76-1.26 4.92zm22.38 8.76h-2.88v-15h-5.16V8.82H117v2.46h-5.16v15h.06zm7.8-17.46h2.64v9.06c0 .96 0 1.92-.06 2.88s-.06 1.62-.12 1.98h.12l8.94-13.92h3.36v17.46h-2.64v-9c0-1.38.06-3.06.24-5.04h-.12l-9 14.04h-3.36V8.82zm26.88 2.22c-1.62 0-2.94.6-3.9 1.74-.96 1.14-1.44 2.76-1.44 4.8 0 2.16.48 3.78 1.38 4.86.9 1.08 2.22 1.68 3.9 1.68.72 0 1.44-.06 2.16-.24.72-.12 1.44-.36 2.16-.54v2.46c-1.38.54-2.94.78-4.68.78-2.58 0-4.5-.78-5.88-2.34-1.38-1.56-2.04-3.78-2.04-6.66 0-1.8.36-3.42 1.02-4.8s1.62-2.4 2.88-3.12c1.26-.72 2.76-1.08 4.44-1.08 1.8 0 3.42.36 4.98 1.14l-1.02 2.4c-.6-.3-1.2-.54-1.86-.72-.72-.3-1.38-.36-2.1-.36zm21.48 15.24h-3.36l-7.2-8.88v8.88h-2.88V8.82h2.88v8.46l7.08-8.46h3.12l-7.08 8.46 7.44 9zm17.82-8.76c0 2.82-.72 5.04-2.16 6.66-1.44 1.56-3.42 2.34-6.06 2.34-2.64 0-4.68-.78-6.06-2.34-1.44-1.56-2.1-3.78-2.1-6.66 0-2.88.72-5.1 2.16-6.66 1.44-1.56 3.48-2.34 6.12-2.34 2.58 0 4.62.78 6 2.34 1.38 1.56 2.1 3.84 2.1 6.66zm-13.32 0c0 2.16.42 3.78 1.32 4.92.84 1.14 2.16 1.68 3.84 1.68 1.68 0 3-.54 3.84-1.68.84-1.08 1.32-2.76 1.32-4.92s-.42-3.78-1.26-4.86c-.84-1.08-2.16-1.68-3.84-1.68-1.74 0-3 .54-3.9 1.68-.9 1.08-1.32 2.7-1.32 4.86zm30.54 8.76h-2.88v-15h-7.74v15.06h-2.88V8.82h13.44v17.46h.06z" opacity=".75" fill="#000"/></g><defs><clipPath id="clip0"><path fill="#fff" d="M0 0h203.1v36H0z"/></clipPath></defs></svg>