<?xml version="1.0" encoding="utf-8"?><svg viewBox="0 0 80 80" xmlns="http://www.w3.org/2000/svg" xmlns:xlink="http://www.w3.org/1999/xlink"><style>:root>svg{display:none}:root>svg:target{display:block}</style><svg fill="none" viewBox="0 0 41 8" id="arrow" xmlns="http://www.w3.org/2000/svg"><path d="M40.354 4.354a.5.5 0 000-.708L37.172.464a.5.5 0 10-.707.708L39.293 4l-2.828 2.828a.5.5 0 10.707.708l3.182-3.182zM0 4.5h40v-1H0v1z" fill="#fff"/></svg><svg fill="none" viewBox="0 0 12 22" id="arrow-nxt" xmlns="http://www.w3.org/2000/svg"><path d="M1 1l10 10L1 21" stroke="#7C107E"/></svg><svg fill="none" viewBox="0 0 12 22" id="arrow-prw" xmlns="http://www.w3.org/2000/svg"><path d="M11 1L1 11l10 10" stroke="#7C107E"/></svg><svg fill="none" viewBox="0 0 48 48" id="articles" xmlns="http://www.w3.org/2000/svg"><g clip-path="url(#dclip0)"><path d="M48 15v30H0V3h36l12 12z" fill="#F2F2F2"/><path d="M42.15 25.172a.826.826 0 00-.825-.825H6.675a.826.826 0 000 1.65h34.65c.46.01.825-.366.825-.825zm0 5.287a.826.826 0 00-.825-.825H6.675a.826.826 0 000 1.65h34.65c.46.01.825-.365.825-.825zm0 5.288a.826.826 0 00-.825-.825H6.675a.826.826 0 000 1.65h34.65a.82.82 0 00.825-.825zM48 15H36V3l12 12zm0 0L36 3l12 12zM24.75 9.713H6.675a.82.82 0 01-.825-.825.82.82 0 01.825-.825H24.75a.82.82 0 01.825.824.82.82 0 01-.825.825zm0 5.287H6.675a.82.82 0 01-.825-.825.82.82 0 01.825-.825H24.75a.82.82 0 01.825.825.82.82 0 01-.825.825z" fill="#7C107E"/></g><defs><clipPath id="dclip0"><path fill="#fff" d="M0 0h48v48H0z"/></clipPath></defs></svg><svg viewBox="0 0 70 80" fill="none" id="base" xmlns="http://www.w3.org/2000/svg"><path d="M21.25 42.516h27.5a6.248 6.248 0 006.25-6.25V6.25v-.031C54.984 2.797 52.187.016 48.766 0H21.25A6.248 6.248 0 0015 6.25v30c0 3.453 2.797 6.266 6.25 6.266zm0-30.016h27.5a6.177 6.177 0 003.75-1.281v5.047a3.758 3.758 0 01-3.734 3.75H21.25a3.761 3.761 0 01-3.75-3.75v-5.047a6.177 6.177 0 003.75 1.281zm0 10h27.5a6.177 6.177 0 003.75-1.281v5.047a3.758 3.758 0 01-3.734 3.75H21.25a3.761 3.761 0 01-3.75-3.75v-5.032a6.265 6.265 0 003.75 1.266zm27.516 17.516L21.25 40a3.761 3.761 0 01-3.75-3.75v-5.031a6.177 6.177 0 003.75 1.281h27.5a6.177 6.177 0 003.75-1.281v5.047a3.758 3.758 0 01-3.734 3.75zM21.234 2.5H48.75a3.761 3.761 0 013.75 3.75A3.758 3.758 0 0148.766 10H21.25a3.761 3.761 0 01-3.75-3.75 3.758 3.758 0 013.734-3.75zM22.484 63.797a3.761 3.761 0 00-3.75-3.75H3.75A3.761 3.761 0 000 63.797v2.5c0 .031.016.078.016.11V78.75c0 .688.562 1.25 1.25 1.25H21.25c.688 0 1.25-.563 1.25-1.25V65.047c0-.031-.016-.078-.016-.11v-1.14zM3.75 62.547h14.969c.687 0 1.25.562 1.25 1.25H2.5c0-.703.563-1.25 1.25-1.25zM2.531 77.5V66.297h17.453c0 .031.016.078.016.11V77.5H2.531zM46.234 63.797a3.761 3.761 0 00-3.75-3.75H27.5a3.761 3.761 0 00-3.75 3.75v2.5c0 .031.016.078.016.11V78.75c0 .688.562 1.25 1.25 1.25H45c.688 0 1.25-.563 1.25-1.25V65.047c0-.031-.016-.078-.016-.11v-1.14zM27.5 62.547h14.969c.687 0 1.25.562 1.25 1.25H26.25c0-.703.563-1.25 1.25-1.25zM26.281 77.5V66.297h17.453c0 .031.016.078.016.11V77.5H26.281zM69.969 63.75a3.761 3.761 0 00-3.75-3.75H51.25a3.761 3.761 0 00-3.75 3.75v2.5c0 .031.016.078.016.11v12.343c0 .688.562 1.25 1.25 1.25H68.75c.688 0 1.25-.562 1.25-1.25V65c0-.031-.016-.078-.016-.11v-1.14h-.015zM51.25 62.5h14.969c.687 0 1.25.563 1.25 1.25H50c0-.688.563-1.25 1.25-1.25zm-1.219 14.953V66.25h17.453c0 .031.016.078.016.11v11.093H50.031zM10.016 51.25v6.25c0 .688.562 1.25 1.25 1.25.687 0 1.25-.563 1.25-1.25v-5h21.25v5c0 .688.562 1.25 1.25 1.25.687 0 1.25-.563 1.25-1.25v-5h21.25v5c0 .688.562 1.25 1.25 1.25.687 0 1.25-.563 1.25-1.25v-6.25c0-.688-.563-1.25-1.25-1.25h-22.5v-5c0-.688-.563-1.25-1.25-1.25-.688 0-1.25.563-1.25 1.25v5h-22.5c-.688 0-1.25.563-1.25 1.25z" fill="#fff"/></svg><svg fill="none" viewBox="0 0 20 20" id="cosmetic" xmlns="http://www.w3.org/2000/svg"><path d="M2.612 20h10.05l.344-.529a13.379 13.379 0 002.18-6.112c.058-.429.087-.9.087-1.402v-1.371h-1.171V9.414H1.172v1.172H0v1.37c0 2.672.784 5.296 2.263 7.508l.35.536zm5.044-2.383a2.346 2.346 0 01-2.343-2.344 2.346 2.346 0 012.343-2.343A2.346 2.346 0 0110 15.273a2.346 2.346 0 01-2.344 2.344z" fill="#fff"/><path d="M7.656 14.102c-.646 0-1.172.525-1.172 1.171s.526 1.172 1.172 1.172c.646 0 1.172-.526 1.172-1.172 0-.646-.526-1.171-1.172-1.171zM11.533 4.578l-.788-.687-.175 1.03a1.17 1.17 0 01-1.156.977H5.313a2.934 2.934 0 00-2.87 2.344H12.88c.19-1.387-.288-2.742-1.348-3.664z" fill="#fff"/><path d="M12.93 0C9.87 0 7.29 1.97 6.329 4.727h3.085l.525-3.093 2.364 2.06c1.295 1.127 1.938 2.818 1.75 4.548h1.22v1.172h1.172v2.543c0 .431-.036.824-.075 1.213C18.538 11.954 20 9.652 20 7.07 20 3.193 16.807 0 12.93 0z" fill="#fff"/></svg><svg fill="none" viewBox="0 0 80 80" id="gift" xmlns="http://www.w3.org/2000/svg"><path d="M10.262 58.595c.133.133.3.232.466.299v19.775c0 .732.598 1.331 1.33 1.331h61.09c.731 0 1.33-.599 1.33-1.33V46.802c0-.732-.599-1.331-1.33-1.331h-6.653c1.347-1.763 2.66-3.875 2.66-5.306a5.305 5.305 0 00-3.442-4.973 5.288 5.288 0 00-5.854 1.464 5.323 5.323 0 00-5.855-1.464 5.353 5.353 0 00-3.443 4.973c0 1.43 1.314 3.56 2.661 5.306H25.264l33.83-33.83a1.335 1.335 0 000-1.879L49.695.366a1.367 1.367 0 00-1.879 0L35.443 12.74C31.102 9.347 25.946 7.235 23.4 9.763c-1.663 1.663-1.314 4.474.083 7.435l-5.804 5.804c-2.96-1.397-5.771-1.746-7.435-.083-2.528 2.528-.415 7.7 2.994 12.042L.865 47.335a1.335 1.335 0 000 1.88l9.397 9.38zm42.96-18.445a2.669 2.669 0 012.662-2.661 2.669 2.669 0 012.66 2.66v.367c0 .731.6 1.33 1.331 1.33.732 0 1.33-.599 1.33-1.33v-.366a2.669 2.669 0 012.662-2.661 2.669 2.669 0 012.661 2.66 15.035 15.035 0 01-3.46 5.306h-6.353a14.679 14.679 0 01-3.493-5.305zm-3.975 7.966h22.587V77.34H49.247V48.116zm-10.627 0h7.966V77.34H38.62V48.116zm-2.662 0V77.34h-22.57V57.414h-.082l9.363-9.364v.066h13.29zm-5.97-11.11L22.47 29.49l7.518-7.518 7.517 7.518-7.518 7.517zM48.764 3.193l7.518 7.518-16.915 16.898-7.518-7.5L48.765 3.192zm-23.484 8.45c.316-.25.715-.383 1.13-.35 1.48 0 4.059.965 7.152 3.343l-5.272 5.273c-3.227-4.158-3.859-7.418-3.01-8.267zm-.45 7.966c.483.749.998 1.48 1.564 2.196l-4.091 4.091a27.863 27.863 0 00-2.196-1.563l4.724-4.724zm-12.69 5.19c.316-.25.716-.383 1.131-.35 1.48 0 4.075.965 7.152 3.343l-.765.765-4.524 4.507c-3.21-4.158-3.842-7.417-2.994-8.266zm8.45 6.569l7.517 7.518-16.915 16.898-7.5-7.518L20.59 31.368z" fill="#fff"/><path d="M70.503 18.046a5.323 5.323 0 00-5.854-1.464 5.353 5.353 0 00-3.443 4.973c0 2.877 6.27 10.628 9.297 10.628 3.027 0 9.297-7.734 9.297-10.628a5.305 5.305 0 00-3.442-4.973c-2.063-.765-4.408-.183-5.855 1.464zm6.636 3.51c-.033 1.662-5.139 7.766-6.62 7.966-1.53-.2-6.635-6.304-6.669-7.967a2.669 2.669 0 012.661-2.661 2.669 2.669 0 012.662 2.661v.366c0 .732.598 1.33 1.33 1.33.732 0 1.33-.598 1.33-1.33v-.366a2.669 2.669 0 012.662-2.661c1.447.017 2.644 1.198 2.644 2.661z" fill="#fff"/></svg><svg fill="none" viewBox="0 0 18 20" id="hair" xmlns="http://www.w3.org/2000/svg"><path d="M16.96 7.744a2.726 2.726 0 00-1.94-.804c-.733 0-1.422.286-1.94.804a2.748 2.748 0 00-.595 2.988l-1.546.309L11 12.33l2.348-.47a2.723 2.723 0 001.67.568c.734 0 1.423-.286 1.941-.804a2.747 2.747 0 000-3.88zm-.902 2.978c-.277.277-.646.43-1.038.43s-.76-.153-1.038-.43a1.47 1.47 0 011.038-2.505 1.47 1.47 0 011.038 2.505zM10.019 11.225l-1.006-1.006-1.329-.024-7.299 8.758a.638.638 0 00.9.9l8.808-7.342.023-.004-.097-1.282zM8.72 3.177a2.787 2.787 0 00-.107.1l-.004.005-.006.006a2.725 2.725 0 00-.793 1.93c0 .612.2 1.193.567 1.67l-.48 2.402 1.314-.063.295-1.472a2.74 2.74 0 001.047.206c.733 0 1.422-.285 1.94-.803a2.726 2.726 0 00.804-1.94c0-.733-.285-1.422-.804-1.94a2.736 2.736 0 00-2.056-.8c.007-.05.012-.1.016-.15.05-.74-.236-1.455-.851-2.122a.638.638 0 10-.939.864c.365.397.54.788.517 1.162-.027.452-.326.807-.46.945zm.786 1.013c.02-.018.046-.041.077-.071a1.462 1.462 0 012.008.06c.277.278.43.647.43 1.039 0 .392-.153.76-.43 1.037-.277.277-.646.43-1.038.43s-.76-.153-1.037-.43a1.458 1.458 0 01-.43-1.037c0-.388.15-.752.42-1.028z" fill="#fff"/></svg><svg fill="none" viewBox="0 0 16 15" id="heart" xmlns="http://www.w3.org/2000/svg"><path d="M8 14.72L6.88 13.6C2.72 9.92 0 7.44 0 4.4 0 1.92 1.92 0 4.4 0 5.76 0 7.12.64 8 1.68 8.88.64 10.24 0 11.6 0 14.08 0 16 1.92 16 4.4c0 3.04-2.72 5.52-6.88 9.2L8 14.72z" fill="#7C107E"/></svg><svg fill="none" viewBox="0 0 10 12" id="location" xmlns="http://www.w3.org/2000/svg"><path d="M5.019 0A4.425 4.425 0 00.6 4.419c0 .635.129 1.242.387 1.803 1.104 2.416 3.223 4.97 3.847 5.694a.246.246 0 00.37 0c.624-.725 2.74-3.278 3.847-5.694.255-.56.387-1.168.387-1.803A4.425 4.425 0 005.018 0zm0 6.714a2.297 2.297 0 01-2.295-2.295 2.297 2.297 0 012.295-2.295 2.297 2.297 0 012.295 2.295 2.297 2.297 0 01-2.295 2.295z" fill="#7C107E"/></svg><svg fill="none" viewBox="0 0 80 80" id="m-search" xmlns="http://www.w3.org/2000/svg"><path d="M40 20.645c-10.694 0-19.355 8.661-19.355 19.355S29.306 59.355 40 59.355 59.355 50.694 59.355 40 50.694 20.645 40 20.645zm0 36.13c-9.242 0-16.774-7.533-16.774-16.775 0-9.242 7.532-16.774 16.774-16.774S56.774 30.758 56.774 40 49.242 56.774 40 56.774z" fill="#fff"/><path d="M78.016 68.452L65.693 56.129 68 53.823 66.177 52l-2.306 2.306-2.42-2.419A24.406 24.406 0 0064.517 40c0-13.532-10.984-24.516-24.516-24.516-13.532 0-24.516 10.984-24.516 24.516 0 13.532 10.984 24.516 24.516 24.516 4.306 0 8.355-1.113 11.887-3.064l2.42 2.419L52 66.177 53.823 68l2.306-2.306 12.323 12.322A6.748 6.748 0 0073.242 80 6.767 6.767 0 0080 73.242c0-1.806-.71-3.516-1.984-4.79zM24.484 55.516c-4.145-4.145-6.42-9.661-6.42-15.516s2.275-11.371 6.42-15.516 9.645-6.42 15.516-6.42c5.855 0 11.371 2.275 15.516 6.42s6.42 9.661 6.42 15.516-2.275 11.371-6.42 15.516-9.661 6.42-15.516 6.42-11.371-2.275-15.516-6.42zM73.242 77.42a4.148 4.148 0 01-2.952-1.225L54.13 60.047a24.853 24.853 0 005.92-5.919l16.16 16.161a4.149 4.149 0 011.227 2.952 4.202 4.202 0 01-4.194 4.177zM68.387 23.226C74.79 23.226 80 18.016 80 11.613S74.79 0 68.387 0 56.774 5.21 56.774 11.613s5.21 11.613 11.613 11.613zm3.871-3.468a8.915 8.915 0 01-3.87.887 8.915 8.915 0 01-3.872-.887v-1.694a3.882 3.882 0 013.871-3.87 3.882 3.882 0 013.871 3.87v1.694zM65.806 9.032c0-1.42 1.162-2.58 2.581-2.58 1.42 0 2.58 1.16 2.58 2.58 0 1.42-1.16 2.58-2.58 2.58a2.588 2.588 0 01-2.58-2.58zm2.581-6.451c4.984 0 9.032 4.048 9.032 9.032 0 2.468-1 4.693-2.596 6.323a6.467 6.467 0 00-2.84-5.226 5.076 5.076 0 001.565-3.678c0-2.838-2.322-5.161-5.16-5.161-2.84 0-5.162 2.323-5.162 5.161 0 1.452.597 2.742 1.548 3.678a6.486 6.486 0 00-2.839 5.226 9.062 9.062 0 01-2.58-6.323c0-4.984 4.048-9.032 9.032-9.032zM11.613 23.226c6.403 0 11.613-5.21 11.613-11.613S18.016 0 11.613 0 0 5.21 0 11.613s5.21 11.613 11.613 11.613zm3.87-3.468a8.915 8.915 0 01-3.87.887 8.915 8.915 0 01-3.871-.887v-1.694a3.882 3.882 0 013.87-3.87 3.882 3.882 0 013.872 3.87v1.694zM9.034 9.032c0-1.42 1.16-2.58 2.58-2.58 1.42 0 2.58 1.16 2.58 2.58 0 1.42-1.16 2.58-2.58 2.58a2.588 2.588 0 01-2.58-2.58zm2.58-6.451c4.984 0 9.032 4.048 9.032 9.032 0 2.468-1 4.693-2.597 6.323a6.467 6.467 0 00-2.838-5.226 5.076 5.076 0 001.564-3.678c0-2.838-2.322-5.161-5.161-5.161-2.839 0-5.161 2.323-5.161 5.161 0 1.452.596 2.742 1.548 3.678a6.486 6.486 0 00-2.839 5.226 9.062 9.062 0 01-2.58-6.323c0-4.984 4.048-9.032 9.032-9.032zM11.613 56.774C5.21 56.774 0 61.984 0 68.387S5.21 80 11.613 80s11.613-5.21 11.613-11.613-5.21-11.613-11.613-11.613zm3.87 19.758a8.915 8.915 0 01-3.87.887 8.915 8.915 0 01-3.871-.887V74.84a3.882 3.882 0 013.87-3.871 3.882 3.882 0 013.872 3.87v1.694zm-6.45-10.726c0-1.419 1.16-2.58 2.58-2.58 1.42 0 2.58 1.161 2.58 2.58 0 1.42-1.16 2.581-2.58 2.581a2.588 2.588 0 01-2.58-2.58zm9.015 8.904a6.467 6.467 0 00-2.838-5.226 5.155 5.155 0 001.548-3.678c0-2.838-2.322-5.16-5.161-5.16-2.839 0-5.162 2.322-5.162 5.16 0 1.452.597 2.742 1.549 3.678a6.486 6.486 0 00-2.839 5.226c-1.564-1.63-2.564-3.855-2.564-6.323 0-4.984 4.048-9.032 9.032-9.032s9.032 4.048 9.032 9.032c0 2.468-1 4.694-2.597 6.323z" fill="#fff"/></svg><svg fill="none" viewBox="0 0 16 13" id="mail" xmlns="http://www.w3.org/2000/svg"><path d="M16 10.133c0 .351-.099.676-.257.962l-5.052-5.652 4.997-4.372c.195.308.312.67.312 1.062v8zM8 6.47L14.953.385A1.975 1.975 0 0014 .133H2c-.347 0-.668.096-.953.252L8 6.47zm1.939-.368l-1.61 1.41a.5.5 0 01-.658 0L6.06 6.1.945 11.826c.307.192.666.307 1.055.307h12c.389 0 .748-.115 1.055-.307L9.939 6.1zM.312 1.071C.117 1.379 0 1.74 0 2.133v8c0 .351.098.676.257.962l5.051-5.653L.312 1.071z" fill="#7C107E"/></svg><svg fill="none" viewBox="0 0 11 20" id="manicure" xmlns="http://www.w3.org/2000/svg"><path d="M8.492 11.016a3.122 3.122 0 00-2.71-2.707V6.484h1.562c.215 0 .39-.175.39-.39v-3.75A2.34 2.34 0 005.391 0a2.346 2.346 0 00-2.344 2.344v3.75c0 .215.176.39.39.39H5V8.31a3.138 3.138 0 00-2.71 2.707C.991 12.14.737 13.34.702 15.383v4.226c0 .215.176.391.39.391h8.595c.214 0 .39-.176.39-.39v-4.383c-.047-1.91-.312-3.106-1.586-4.211zM3.828 5.703v-3.36a1.562 1.562 0 113.125 0v3.36H3.828zm3.906 9.61v.07c0 .02 0 .039-.004.058 0 .016 0 .036-.003.051 0 .02-.004.04-.004.059v.004c0 .02-.004.039-.008.058-.004.016-.004.032-.008.043a.562.562 0 01-.016.086c-.003.016-.003.027-.007.043l-.012.059a.325.325 0 01-.016.058c-.011.055-.031.11-.047.164-.007.02-.011.04-.02.059-.007.02-.01.035-.019.055l-.023.054a1.597 1.597 0 01-.055.118c-.008.011-.012.023-.02.039-.003.004-.003.007-.007.015a2.313 2.313 0 01-.473.625c-.027.028-.054.051-.082.075l-.043.035a2.416 2.416 0 01-.27.191c-.015.008-.03.02-.046.027a.782.782 0 01-.098.051c-.02.008-.035.02-.05.027-.032.016-.063.032-.098.043-.004 0-.008.004-.012.004l-.152.059c-.004 0-.008 0-.012.004-.016.004-.031.012-.047.015-.016.004-.035.012-.05.016-.005 0-.009.004-.012.004l-.047.012a.326.326 0 00-.059.015l-.059.012-.058.012a.198.198 0 01-.05.008c-.005 0-.009 0-.017.004-.011 0-.02.003-.03.003-.013 0-.024.004-.036.004-.016 0-.031.004-.043.004-.012 0-.027.004-.039.004-.066.004-.129.008-.195.008-.067 0-.133-.004-.196-.008-.011 0-.027-.004-.039-.004-.015 0-.03-.004-.043-.004-.011 0-.023-.004-.035-.004-.011 0-.023-.003-.031-.003-.004 0-.008 0-.016-.004-.015-.004-.035-.004-.05-.008l-.059-.012-.059-.012a.326.326 0 01-.058-.015l-.047-.012c-.004 0-.008-.004-.012-.004-.015-.004-.035-.008-.05-.015a.22.22 0 01-.047-.016c-.004 0-.008-.004-.012-.004l-.153-.059c-.003 0-.007-.004-.011-.004-.032-.015-.067-.027-.098-.043-.02-.007-.035-.019-.05-.027-.032-.015-.067-.035-.098-.05-.016-.008-.032-.02-.047-.028a2.131 2.131 0 01-.196-.133c-.023-.02-.05-.039-.074-.058-.015-.012-.027-.024-.043-.035-.015-.012-.027-.024-.043-.04-.011-.011-.027-.023-.039-.039a2.313 2.313 0 01-.472-.625c-.004-.004-.004-.008-.008-.015-.008-.012-.012-.028-.02-.04-.02-.038-.035-.078-.054-.117l-.024-.054c-.008-.02-.015-.035-.02-.055a.344.344 0 01-.019-.058 1.294 1.294 0 01-.047-.165.328.328 0 00-.015-.058l-.012-.059c-.004-.015-.004-.027-.008-.043-.004-.027-.012-.058-.016-.086a.14.14 0 00-.007-.043c-.004-.02-.004-.039-.008-.058v-.004c0-.02-.004-.04-.004-.059 0-.015-.004-.035-.004-.05 0-.02-.004-.04-.004-.06v-3.972c0-1.168.86-2.125 1.953-2.308v2.609l-1.129 2.262a.388.388 0 00.176.523c.191.098.426.02.524-.176l.82-1.644.824 1.644c.098.196.332.27.523.176a.395.395 0 00.176-.523l-1.133-2.262v-2.61a2.344 2.344 0 011.954 2.313v3.902h.007z" fill="#fff"/><path d="M6.953 2.344v3.36H3.828v-3.36a1.562 1.562 0 113.125 0z" fill="#fff"/></svg><svg fill="none" viewBox="0 0 18 20" id="massage" xmlns="http://www.w3.org/2000/svg"><path d="M11.363 12.938c-.422-.587-.586-1.09-.621-1.606V9.363c0-1.535-2.344-1.535-2.344.012v2.93a.58.58 0 01-.586.586.58.58 0 01-.586-.586V9.609c0-.152.035-.304.082-.445l.882-2.133c-.214 0-.519.031-.953.04-.436 0-.838-.165-1.187-.369l-.875 2.18a4.048 4.048 0 00-.293 1.524v3.41c0 .645.153 1.29.446 1.852.492.96.726 2.117.726 3.195v.551A.58.58 0 006.64 20h3.516a.58.58 0 00.586-.586v-2.187c0-.176.058-.317.152-.399a2.82 2.82 0 001.02-2.18c0-.62-.188-1.207-.551-1.71zM17.187 1.172h-.55a6.845 6.845 0 01-3.118-.727A4.032 4.032 0 0011.668 0h-3.41c-.516 0-1.032.094-1.524.293L1.039 2.578c-1.442.574-.774 2.625.527 2.086l5.45-2.238c.14-.047.292-.082.445-.082h2.695a.58.58 0 01.586.586.58.58 0 01-.586.586h-2.93c-.644 0-1.172.527-1.172 1.171 0 .68.563 1.172 1.16 1.172h1.97c.515.035 1.019.2 1.605.622.504.363 1.09.55 1.71.55.844 0 1.63-.363 2.18-1.02.082-.093.223-.152.399-.152h2.11a.58.58 0 00.585-.586V1.758a.58.58 0 00-.586-.586z" fill="#fff"/></svg><svg fill="none" viewBox="0 0 48 48" id="news" xmlns="http://www.w3.org/2000/svg"><path d="M48 8.334H0V45h48V8.334z" fill="#F2F2F2"/><path d="M0 3h48v5.334H0V3zm41.597 14.063H6.403a.796.796 0 110-1.594h35.203a.796.796 0 11-.01 1.594zm-19.735 4.274H6.395a.796.796 0 110-1.593h15.468c.441 0 .797.356.797.797a.79.79 0 01-.796.796zm0 4.266H6.395a.796.796 0 110-1.594h15.468c.441 0 .797.357.797.797a.79.79 0 01-.796.797zm0 4.266H6.395a.796.796 0 110-1.594h15.468c.441 0 .797.356.797.797a.79.79 0 01-.796.797zm4.276-9.338h15.468v12.797H26.137V20.531zm-4.276 13.603H6.395a.796.796 0 110-1.593h15.468c.441 0 .797.356.797.797a.79.79 0 01-.796.796z" fill="#7C107E"/></svg><svg fill="none" viewBox="0 0 14 16" id="notif" xmlns="http://www.w3.org/2000/svg"><path d="M7 16c.88 0 1.6-.72 1.6-1.6H5.4c0 .88.72 1.6 1.6 1.6zm5.2-4.8V6.8c0-2.48-1.68-4.48-4-5.04V1.2C8.2.56 7.64 0 7 0c-.64 0-1.2.56-1.2 1.2v.56c-2.32.56-4 2.56-4 5.04v4.4L.2 12.8v.8h13.6v-.8l-1.6-1.6z" fill="#7C107E"/></svg><svg fill="none" viewBox="0 0 48 48" id="novelty" xmlns="http://www.w3.org/2000/svg"><path d="M41.156 45c-.422 0-.834-.187-1.106-.525l-4.631-5.606h-9.713a3.053 3.053 0 01-3.047-3.047V21.788a3.053 3.053 0 013.047-3.047h19.238a3.053 3.053 0 013.047 3.047v14.025a3.053 3.053 0 01-3.047 3.046h-1.135l-1.256 5.044A1.457 1.457 0 0141.156 45z" fill="#7C107E"/><path d="M10.303 41.981c-.103 0-.216-.01-.319-.037a1.428 1.428 0 01-1.078-1.06l-2.09-8.38H3.928A3.919 3.919 0 010 28.583V6.928A3.933 3.933 0 013.928 3h29.7a3.933 3.933 0 013.928 3.928v21.656a3.933 3.933 0 01-3.928 3.929H18.797l-7.378 8.943a1.456 1.456 0 01-1.116.525z" fill="#F2F2F2"/><path d="M14.166 25.931c-.3 0-.6-.094-.844-.272a1.441 1.441 0 01-.572-1.406l.75-4.378-3.188-3.103a1.436 1.436 0 01-.365-1.472c.169-.525.619-.9 1.162-.984l4.397-.638 1.969-3.984a1.45 1.45 0 011.294-.807c.553 0 1.05.31 1.294.807l1.968 3.984 4.397.638c.544.075.994.459 1.163.984a1.426 1.426 0 01-.366 1.472l-3.188 3.103.75 4.378a1.434 1.434 0 01-.571 1.406 1.455 1.455 0 01-1.52.113L18.76 23.7l-3.937 2.072c-.197.103-.422.16-.656.16z" fill="#7C107E"/></svg><svg fill="none" viewBox="0 0 80 80" id="rate" xmlns="http://www.w3.org/2000/svg"><path d="M40 25.192c6.945 0 12.596-5.652 12.596-12.596C52.596 5.65 46.945 0 40 0S27.404 5.651 27.404 12.596c0 6.944 5.651 12.596 12.596 12.596zm0-22.639c5.532 0 10.042 4.51 10.042 10.043 0 5.532-4.51 10.042-10.042 10.042s-10.043-4.51-10.043-10.042S34.468 2.553 40 2.553zM19.49 50.809h41.038c.697 0 1.276-.58 1.276-1.277 0-12.017-9.77-21.787-21.787-21.787S18.23 37.515 18.23 49.532a1.24 1.24 0 001.26 1.277zM40 30.298c10.179 0 18.536 7.949 19.2 17.957H20.8c.664-10.008 9.021-17.957 19.2-17.957zM23.898 64.29l-6.996-1.175-3.285-6.298a1.278 1.278 0 00-1.14-.68c-.477 0-.92.271-1.14.68L8.05 63.115l-6.996 1.174a1.28 1.28 0 00-1.004.868c-.153.46-.034.954.306 1.294l4.97 5.072-1.038 7.03c-.068.477.12.936.511 1.226.391.272.885.323 1.328.102l6.349-3.166 6.349 3.166c.187.085.374.136.561.136a1.263 1.263 0 001.26-1.464l-1.039-7.03 4.97-5.072c.341-.34.443-.834.307-1.294a1.233 1.233 0 00-.987-.868zm-6.536 5.889c-.273.29-.409.68-.358 1.09l.783 5.225-4.732-2.35a1.337 1.337 0 00-1.14 0l-4.732 2.35.783-5.226a1.3 1.3 0 00-.358-1.09L3.898 66.4l5.208-.868c.392-.068.732-.306.92-.664l2.45-4.68 2.452 4.663c.187.358.527.596.919.664l5.208.868-3.693 3.796zM51.421 64.29l-6.995-1.175-3.286-6.298a1.278 1.278 0 00-1.14-.68c-.477 0-.92.271-1.14.68l-3.286 6.298-6.995 1.174a1.28 1.28 0 00-1.005.868c-.153.46-.034.954.307 1.294l4.97 5.072-1.038 7.03c-.068.477.119.936.51 1.226.392.272.886.323 1.328.102L40 76.715l6.349 3.166c.187.085.374.136.562.136a1.263 1.263 0 001.26-1.464l-1.04-7.03 4.971-5.072c.34-.34.443-.834.306-1.294a1.257 1.257 0 00-.987-.868zm-6.553 5.889c-.272.29-.408.68-.357 1.09l.783 5.225-4.732-2.35a1.361 1.361 0 00-.562-.136 1.3 1.3 0 00-.562.137l-4.732 2.349.783-5.226a1.3 1.3 0 00-.357-1.09l-3.71-3.778 5.208-.868c.391-.068.732-.306.919-.664L40 60.188l2.451 4.68c.187.358.528.596.92.664l5.208.868-3.71 3.779zM79.932 65.157a1.28 1.28 0 00-1.004-.868l-6.996-1.174-3.285-6.298a1.278 1.278 0 00-1.14-.68c-.477 0-.92.271-1.141.68l-3.285 6.298-6.996 1.174a1.28 1.28 0 00-1.004.868c-.153.46-.034.954.306 1.294l4.97 5.072-1.038 7.03c-.068.477.12.936.51 1.226.392.272.886.323 1.328.102l6.35-3.166 6.348 3.166c.188.085.375.136.562.136a1.263 1.263 0 001.26-1.464l-1.039-7.03 4.97-5.072c.358-.34.477-.851.324-1.294zm-7.54 5.022c-.273.29-.409.68-.358 1.09l.783 5.225-4.732-2.366a1.361 1.361 0 00-.562-.136 1.3 1.3 0 00-.561.136l-4.732 2.349.783-5.226a1.3 1.3 0 00-.358-1.09l-3.71-3.778 5.208-.868c.392-.068.732-.306.92-.664l2.45-4.68 2.434 4.68c.188.358.528.596.92.664l5.208.868-3.694 3.796z" fill="#fff"/></svg><svg fill="none" viewBox="0 0 10 12" id="user" xmlns="http://www.w3.org/2000/svg"><path d="M5 6.26A3.134 3.134 0 008.131 3.13a3.132 3.132 0 00-6.262.002A3.132 3.132 0 005 6.261zm4.957 3.914c0-1.47-.642-2.791-1.662-3.7a4.675 4.675 0 01-3.293 1.352A4.675 4.675 0 011.71 6.473a4.943 4.943 0 00-1.666 3.701V12h9.914v-1.826z" fill="#7C107E"/></svg></svg>